<svg xmlns="http://www.w3.org/2000/svg" width="170" height="32" viewBox="0 0 170 32">
    <g fill="none" fill-rule="evenodd">
        <path fill="#FFF" d="M153.28 6.584v3.762h5.893v16.686h4.858V10.346h5.895V6.584H153.28zm-11.958 3.552h1.955c1.255 0 2.182.252 2.781.758.598.504.897 1.206.897 2.105 0 .448-.065.867-.2 1.256a2.58 2.58 0 0 1-.647 1.016 3.04 3.04 0 0 1-1.143.682c-.466.163-1.027.246-1.688.246h-1.955v-6.063zm1.236 9.334c.374 0 .663.056.87.168.205.111.385.298.538.56l3.48 5.936c.353.599.938.898 1.753.898h4.397l-4.455-7.114a3.53 3.53 0 0 0-.74-.856 4.584 4.584 0 0 0-.913-.589 7.127 7.127 0 0 0 1.803-.97 6.205 6.205 0 0 0 1.324-1.338c.358-.501.63-1.047.811-1.636a6.334 6.334 0 0 0 .272-1.882c0-.869-.151-1.674-.459-2.414-.307-.739-.796-1.38-1.474-1.923-.675-.542-1.547-.965-2.615-1.269-1.068-.304-2.36-.457-3.873-.457h-6.813v20.448h4.858V19.47h1.236zm-49.661-9.334h2.53c.614 0 1.143.074 1.588.224.446.15.815.364 1.106.639.293.275.512.605.656.989.142.383.216.81.216 1.277 0 1.058-.279 1.881-.835 2.471-.556.59-1.466.883-2.731.883h-2.53v-6.483zm2.53 10.062c1.447 0 2.7-.17 3.759-.512 1.059-.341 1.933-.816 2.624-1.425a5.626 5.626 0 0 0 1.537-2.188c.335-.852.504-1.788.504-2.808 0-.945-.164-1.825-.49-2.638a5.518 5.518 0 0 0-1.515-2.12c-.687-.598-1.558-1.069-2.617-1.41-1.058-.342-2.326-.513-3.802-.513H88.04v20.448h4.857v-6.834h2.53zM71.797 6.584v20.448H85.28v-3.646h-8.595v-4.871h6.584v-3.509h-6.584v-4.773h8.595V6.584H71.798zm-16.284 11.1l-5.39-10.383a1.708 1.708 0 0 0-.296-.415.972.972 0 0 0-.337-.218 1.201 1.201 0 0 0-.424-.07h-4.26v20.434h4.283v-11.76a16.638 16.638 0 0 0-.116-1.865l5.578 10.524c.172.328.405.576.696.746a1.98 1.98 0 0 0 1 .251h.662c.372 0 .704-.085.998-.251.29-.17.523-.418.697-.745l5.548-10.512a21.12 21.12 0 0 0-.086 1.851v11.761h4.282V6.6h-4.261c-.158 0-.3.022-.424.069a.992.992 0 0 0-.339.218c-.1.099-.198.237-.293.415l-5.377 10.341c-.191.364-.378.742-.56 1.131-.182.389-.355.79-.517 1.201a25.56 25.56 0 0 0-.51-1.18 19.689 19.689 0 0 0-.554-1.11zM37.1 19.545c-.267.81-.654 1.496-1.157 2.057-.504.56-1.118.99-1.847 1.284-.728.295-1.558.442-2.487.442-.938 0-1.774-.147-2.507-.442a4.911 4.911 0 0 1-1.855-1.284c-.504-.561-.889-1.247-1.156-2.056-.269-.81-.403-1.724-.403-2.745 0-1.009.134-1.919.403-2.73.267-.808.652-1.493 1.156-2.056a4.97 4.97 0 0 1 1.855-1.29c.733-.299 1.569-.449 2.507-.449.93 0 1.759.15 2.487.45.729.298 1.343.729 1.847 1.29.503.562.89 1.247 1.157 2.056.27.81.403 1.72.403 2.729 0 1.02-.134 1.936-.403 2.745zm4.593-6.857a9.86 9.86 0 0 0-2.207-3.31c-.949-.937-2.09-1.673-3.427-2.212-1.339-.538-2.82-.807-4.45-.807-1.63 0-3.114.268-4.455.8-1.34.534-2.49 1.269-3.443 2.205a9.826 9.826 0 0 0-2.214 3.311c-.521 1.273-.783 2.649-.783 4.126 0 1.48.262 2.855.783 4.128a9.909 9.909 0 0 0 2.214 3.32c.953.939 2.102 1.675 3.443 2.209 1.341.534 2.826.8 4.455.8 1.63 0 3.111-.267 4.45-.8 1.336-.534 2.478-1.27 3.427-2.21a9.941 9.941 0 0 0 2.207-3.319c.522-1.273.783-2.648.783-4.128 0-1.468-.261-2.839-.783-4.112zM18.359 6.584h-4.888v8.549H4.962V6.584H.074v20.448h4.888v-8.644h8.509v8.644h4.888V6.584zM119.88 9.183c.714.672 1.508 1.385 2.195 2.08l-.804 1.012v.05l2.133.931 1.44-.967-.87-.944v-.069c.895-.617 1.663-1.213 2.526-1.778l-.417 4.23h-12.448l-.418-4.23c.864.566 1.63 1.161 2.524 1.778v.069l-.87.944 1.442.967 2.131-.93v-.051l-.803-1.012c.688-.695 1.482-1.408 2.192-2.08h.048M125.988 14.49l-.127 1.409-4.607-.001v4.872l2.244-.015c.5-.002 1.03-.515.92-.854-.12-.49-.57-.817-.989-1.061.084 0 1.622-1.108 2.342-1.584-.032.303-.548 4.282-.552 4.348l-5.317 1.974h-.087l-5.318-1.974c-.004-.066-.52-4.044-.553-4.348.721.476 2.26 1.584 2.345 1.584-.42.244-.87.572-.993 1.06-.105.34.42.853.922.855l2.244.015v-4.872l-4.607.001-.124-1.409h12.257"/>
        <path fill="#83CFCA" d="M134.823 14.789h-2.544a11.919 11.919 0 0 0-2.738-6.455l1.799-1.758a1.19 1.19 0 0 0 0-1.713 1.262 1.262 0 0 0-1.755 0l-1.8 1.758a12.502 12.502 0 0 0-6.61-2.675V1.461c0-.669-.556-1.211-1.241-1.211s-1.24.542-1.24 1.212v2.484a12.499 12.499 0 0 0-6.61 2.675l-1.8-1.759a1.262 1.262 0 0 0-1.755 0 1.191 1.191 0 0 0 0 1.714l1.8 1.758a11.92 11.92 0 0 0-2.74 6.455h-2.543c-.684 0-1.24.542-1.24 1.211s.556 1.212 1.24 1.212h2.543a11.918 11.918 0 0 0 2.74 6.454l-1.8 1.757a1.19 1.19 0 0 0 0 1.713c.243.238.56.355.878.355.317 0 .635-.117.876-.355l1.8-1.758a12.502 12.502 0 0 0 6.61 2.675v2.485c0 .669.556 1.212 1.241 1.212s1.24-.543 1.24-1.212v-2.485a12.505 12.505 0 0 0 6.612-2.675l1.799 1.758c.241.238.56.355.877.355.318 0 .634-.117.878-.355a1.19 1.19 0 0 0 0-1.713l-1.8-1.757a11.906 11.906 0 0 0 2.74-6.454h2.543c.685 0 1.24-.543 1.24-1.212 0-.669-.555-1.211-1.24-1.211zm-14.889 10.926c-5.495 0-9.95-4.35-9.95-9.715 0-5.366 4.455-9.715 9.95-9.715 5.496 0 9.95 4.35 9.95 9.715s-4.454 9.715-9.95 9.715z"/>
    </g>
</svg>
